<svg version="1.1" xmlns="http://www.w3.org/2000/svg" xmlns:xlink="http://www.w3.org/1999/xlink" width="1126.833984375" height="462"><defs/><g><g transform="translate(-134,-22) scale(1,1)"><path fill="#ffffff" stroke="none" d="M 848 168 L 1029 168 L 1039 178 L 1039 269 L 848 269 L 848 168"/></g><g transform="translate(-134,-22) scale(1,1)"><path fill="none" stroke="#000000" d="M 848 168 L 1029 168 L 1039 178 L 1039 269 L 848 269 L 848 168 L 848 168" stroke-miterlimit="10"/></g><g transform="translate(-134,-22) scale(1,1)"><path fill="none" stroke="#000000" d="M 1029 168 L 1029 178 L 1039 178 L 1029 168" stroke-miterlimit="10"/></g><g transform="translate(-134,-22) scale(1,1)"><g><path fill="none" stroke="none"/><text fill="#000000" stroke="none" font-family="Arial" font-size="13px" font-style="normal" font-weight="normal" text-decoration="none" x="853" y="186">Se deberá obtener una imágen</text><text fill="#000000" stroke="none" font-family="Arial" font-size="13px" font-style="normal" font-weight="normal" text-decoration="none" x="853" y="199">con el patrón más parecido al</text><text fill="#000000" stroke="none" font-family="Arial" font-size="13px" font-style="normal" font-weight="normal" text-decoration="none" x="853" y="212">que buscamos y, en caso de</text><text fill="#000000" stroke="none" font-family="Arial" font-size="13px" font-style="normal" font-weight="normal" text-decoration="none" x="853" y="225">no encontrar uno lo</text><text fill="#000000" stroke="none" font-family="Arial" font-size="13px" font-style="normal" font-weight="normal" text-decoration="none" x="853" y="238">suficientemente parecido</text><text fill="#000000" stroke="none" font-family="Arial" font-size="13px" font-style="normal" font-weight="normal" text-decoration="none" x="853" y="251">(añadir umbral), se devolverá</text><text fill="#000000" stroke="none" font-family="Arial" font-size="13px" font-style="normal" font-weight="normal" text-decoration="none" x="853" y="264">un mensaje o error avisando.</text></g></g><g transform="translate(-134,-22) scale(1,1)"><path fill="#ffffff" stroke="none" d="M 912 312 L 1239.833984375 312 L 1249.833984375 322 L 1249.833984375 383 L 912 383 L 912 312"/></g><g transform="translate(-134,-22) scale(1,1)"><path fill="none" stroke="#000000" d="M 912 312 L 1239.833984375 312 L 1249.833984375 322 L 1249.833984375 383 L 912 383 L 912 312 L 912 312" stroke-miterlimit="10"/></g><g transform="translate(-134,-22) scale(1,1)"><path fill="none" stroke="#000000" d="M 1239.833984375 312 L 1239.833984375 322 L 1249.833984375 322 L 1239.833984375 312" stroke-miterlimit="10"/></g><g transform="translate(-134,-22) scale(1,1)"><g><path fill="none" stroke="none"/><text fill="#000000" stroke="none" font-family="Arial" font-size="13px" font-style="normal" font-weight="normal" text-decoration="none" x="917" y="330">Como solo se comparan dos patrones, se debe obtener</text><text fill="#000000" stroke="none" font-family="Arial" font-size="13px" font-style="normal" font-weight="normal" text-decoration="none" x="917" y="343">un resultado booleano (es o no es la misma persona), a</text><text fill="#000000" stroke="none" font-family="Arial" font-size="13px" font-style="normal" font-weight="normal" text-decoration="none" x="917" y="356">diferencia de comparar varios, donde se devuelve el</text><text fill="#000000" stroke="none" font-family="Arial" font-size="13px" font-style="normal" font-weight="normal" text-decoration="none" x="917" y="369">resultado más parecido.</text></g></g><g transform="translate(-134,-22) scale(1,1)"><path fill="#ffffff" stroke="none" d="M 304 392 L 469 392 L 479 402 L 479 471 L 304 471 L 304 392"/></g><g transform="translate(-134,-22) scale(1,1)"><path fill="none" stroke="#000000" d="M 304 392 L 469 392 L 479 402 L 479 471 L 304 471 L 304 392 L 304 392" stroke-miterlimit="10"/></g><g transform="translate(-134,-22) scale(1,1)"><path fill="none" stroke="#000000" d="M 469 392 L 469 402 L 479 402 L 469 392" stroke-miterlimit="10"/></g><g transform="translate(-134,-22) scale(1,1)"><g><path fill="none" stroke="none"/><text fill="#000000" stroke="none" font-family="Arial" font-size="13px" font-style="normal" font-weight="normal" text-decoration="none" x="309" y="410">Como la detección de caras</text><text fill="#000000" stroke="none" font-family="Arial" font-size="13px" font-style="normal" font-weight="normal" text-decoration="none" x="309" y="423">es compleja, vamos a</text><text fill="#000000" stroke="none" font-family="Arial" font-size="13px" font-style="normal" font-weight="normal" text-decoration="none" x="309" y="436">separarla en una clase</text><text fill="#000000" stroke="none" font-family="Arial" font-size="13px" font-style="normal" font-weight="normal" text-decoration="none" x="309" y="449">aparte que va a tener los</text><text fill="#000000" stroke="none" font-family="Arial" font-size="13px" font-style="normal" font-weight="normal" text-decoration="none" x="309" y="462">métodos relacionados.</text></g></g><g transform="translate(-134,-22) scale(1,1)"><path fill="#ffffff" stroke="none" d="M 488 32 L 693 32 L 703 42 L 703 120 L 488 120 L 488 32"/></g><g transform="translate(-134,-22) scale(1,1)"><path fill="none" stroke="#000000" d="M 488 32 L 693 32 L 703 42 L 703 120 L 488 120 L 488 32 L 488 32" stroke-miterlimit="10"/></g><g transform="translate(-134,-22) scale(1,1)"><path fill="none" stroke="#000000" d="M 693 32 L 693 42 L 703 42 L 693 32" stroke-miterlimit="10"/></g><g transform="translate(-134,-22) scale(1,1)"><g><path fill="none" stroke="none"/><text fill="#000000" stroke="none" font-family="Arial" font-size="13px" font-style="normal" font-weight="normal" text-decoration="none" x="493" y="50">A createFacePattern se le pasa la</text><text fill="#000000" stroke="none" font-family="Arial" font-size="13px" font-style="normal" font-weight="normal" text-decoration="none" x="493" y="63">imágen original, sobre la cual se va</text><text fill="#000000" stroke="none" font-family="Arial" font-size="13px" font-style="normal" font-weight="normal" text-decoration="none" x="493" y="76">a obtener la cara (locateFace), y</text><text fill="#000000" stroke="none" font-family="Arial" font-size="13px" font-style="normal" font-weight="normal" text-decoration="none" x="493" y="89">una vez obtenida, se conseguirán</text><text fill="#000000" stroke="none" font-family="Arial" font-size="13px" font-style="normal" font-weight="normal" text-decoration="none" x="493" y="102">sus características, con las que se</text><text fill="#000000" stroke="none" font-family="Arial" font-size="13px" font-style="normal" font-weight="normal" text-decoration="none" x="493" y="115">creará un patrón.</text></g></g><g transform="translate(-134,-22) scale(1,1)"><rect fill="#C0C0C0" stroke="none" x="495" y="39" width="203.73974609375" height="87" opacity="0.2"/></g><g transform="translate(-134,-22) scale(1,1)"><rect fill="#ffffff" stroke="none" x="488" y="32" width="203.73974609375" height="87"/></g><g transform="translate(-134,-22) scale(1,1)"><path fill="none" stroke="#000000" d="M 488 32 L 691.73974609375 32 L 691.73974609375 119 L 488 119 L 488 32 Z Z" stroke-miterlimit="10"/></g><g transform="translate(-134,-22) scale(1,1)"><path fill="none" stroke="#000000" d="M 488 57 L 691.73974609375 57" stroke-miterlimit="10"/></g><g transform="translate(-134,-22) scale(1,1)"><path fill="none" stroke="#000000" d="M 488 67 L 691.73974609375 67" stroke-miterlimit="10"/></g><g transform="translate(-134,-22) scale(1,1)"><g><path fill="none" stroke="none"/><text fill="#000000" stroke="none" font-family="Arial" font-size="13px" font-style="normal" font-weight="bold" text-decoration="none" x="575.78125" y="51.5">Main</text></g></g><g transform="translate(-134,-22) scale(1,1)"><g><path fill="none" stroke="none"/><text fill="#000000" stroke="none" font-family="Arial" font-size="13px" font-style="normal" font-weight="normal" text-decoration="none" x="493" y="84.5">+captureImage()</text></g></g><g transform="translate(-134,-22) scale(1,1)"><g><path fill="none" stroke="none"/><text fill="#000000" stroke="none" font-family="Arial" font-size="13px" font-style="normal" font-weight="normal" text-decoration="none" x="493" y="99.5">+createFacePattern(image)</text></g></g><g transform="translate(-134,-22) scale(1,1)"><g><path fill="none" stroke="none"/><text fill="#000000" stroke="none" font-family="Arial" font-size="13px" font-style="normal" font-weight="normal" text-decoration="none" x="493" y="114.5">+comparePattern(pattern)</text></g></g><g transform="translate(-134,-22) scale(1,1)"><rect fill="#C0C0C0" stroke="none" x="495" y="431" width="291.8388671875" height="44" opacity="0.2"/></g><g transform="translate(-134,-22) scale(1,1)"><rect fill="#ffffff" stroke="none" x="488" y="424" width="291.8388671875" height="44"/></g><g transform="translate(-134,-22) scale(1,1)"><path fill="none" stroke="#000000" d="M 488 424 L 779.8388671875 424 L 779.8388671875 468 L 488 468 L 488 424 Z Z" stroke-miterlimit="10"/></g><g transform="translate(-134,-22) scale(1,1)"><path fill="none" stroke="#000000" d="M 488 449 L 779.8388671875 449" stroke-miterlimit="10"/></g><g transform="translate(-134,-22) scale(1,1)"><path fill="none" stroke="#000000" d="M 488 459 L 779.8388671875 459" stroke-miterlimit="10"/></g><g transform="translate(-134,-22) scale(1,1)"><g><path fill="none" stroke="none"/><text fill="#000000" stroke="none" font-family="Arial" font-size="13px" font-style="normal" font-weight="bold" text-decoration="none" x="541.094482421875" y="443.5">ExtractCharacteristicsFromFace</text></g></g><g transform="translate(-134,-22) scale(1,1)"><rect fill="#C0C0C0" stroke="none" x="495" y="263" width="189.25439453125" height="102" opacity="0.2"/></g><g transform="translate(-134,-22) scale(1,1)"><rect fill="#ffffff" stroke="none" x="488" y="256" width="189.25439453125" height="102"/></g><g transform="translate(-134,-22) scale(1,1)"><path fill="none" stroke="#000000" d="M 488 256 L 677.25439453125 256 L 677.25439453125 358 L 488 358 L 488 256 Z Z" stroke-miterlimit="10"/></g><g transform="translate(-134,-22) scale(1,1)"><path fill="none" stroke="#000000" d="M 488 281 L 677.25439453125 281" stroke-miterlimit="10"/></g><g transform="translate(-134,-22) scale(1,1)"><path fill="none" stroke="#000000" d="M 488 291 L 677.25439453125 291" stroke-miterlimit="10"/></g><g transform="translate(-134,-22) scale(1,1)"><g><path fill="none" stroke="none"/><text fill="#000000" stroke="none" font-family="Arial" font-size="13px" font-style="normal" font-weight="bold" text-decoration="none" x="564.561767578125" y="275.5">Image</text></g></g><g transform="translate(-134,-22) scale(1,1)"><g><path fill="none" stroke="none"/><text fill="#000000" stroke="none" font-family="Arial" font-size="13px" font-style="normal" font-weight="normal" text-decoration="none" x="493" y="308.5">+locateFace()</text></g></g><g transform="translate(-134,-22) scale(1,1)"><g><path fill="none" stroke="none"/><text fill="#000000" stroke="none" font-family="Arial" font-size="13px" font-style="normal" font-weight="normal" text-decoration="none" x="493" y="323.5">+extractCharacteristics(face)</text></g></g><g transform="translate(-134,-22) scale(1,1)"><g><path fill="none" stroke="none"/><text fill="#000000" stroke="none" font-family="Arial" font-size="13px" font-style="normal" font-weight="normal" text-decoration="none" x="493" y="338.5">+extractPattern(characteristics)</text></g></g><g transform="translate(-134,-22) scale(1,1)"><g><path fill="none" stroke="none"/><text fill="#000000" stroke="none" font-family="Arial" font-size="13px" font-style="normal" font-weight="normal" text-decoration="none" x="493" y="353.5">+peekImage()</text></g></g><g transform="translate(-134,-22) scale(1,1)"><rect fill="#C0C0C0" stroke="none" x="151" y="159" width="156.3671875" height="72" opacity="0.2"/></g><g transform="translate(-134,-22) scale(1,1)"><rect fill="#ffffff" stroke="none" x="144" y="152" width="156.3671875" height="72"/></g><g transform="translate(-134,-22) scale(1,1)"><path fill="none" stroke="#000000" d="M 144 152 L 300.3671875 152 L 300.3671875 224 L 144 224 L 144 152 Z Z" stroke-miterlimit="10"/></g><g transform="translate(-134,-22) scale(1,1)"><path fill="none" stroke="#000000" d="M 144 177 L 300.3671875 177" stroke-miterlimit="10"/></g><g transform="translate(-134,-22) scale(1,1)"><path fill="none" stroke="#000000" d="M 144 187 L 300.3671875 187" stroke-miterlimit="10"/></g><g transform="translate(-134,-22) scale(1,1)"><g><path fill="none" stroke="none"/><text fill="#000000" stroke="none" font-family="Arial" font-size="13px" font-style="normal" font-weight="bold" text-decoration="none" x="152.10546875" y="171.5">ImageCaptureFromCam</text></g></g><g transform="translate(-134,-22) scale(1,1)"><g><path fill="none" stroke="none"/><text fill="#000000" stroke="none" font-family="Arial" font-size="13px" font-style="normal" font-weight="normal" text-decoration="none" x="149" y="204.5">+initializeCamera()</text></g></g><g transform="translate(-134,-22) scale(1,1)"><g><path fill="none" stroke="none"/><text fill="#000000" stroke="none" font-family="Arial" font-size="13px" font-style="normal" font-weight="normal" text-decoration="none" x="149" y="219.5">+captureImageFC()</text></g></g><g transform="translate(-134,-22) scale(1,1)"><rect fill="#C0C0C0" stroke="none" x="327" y="159" width="150.58447265625" height="72" opacity="0.2"/></g><g transform="translate(-134,-22) scale(1,1)"><rect fill="#ffffff" stroke="none" x="320" y="152" width="150.58447265625" height="72"/></g><g transform="translate(-134,-22) scale(1,1)"><path fill="none" stroke="#000000" d="M 320 152 L 470.58447265625 152 L 470.58447265625 224 L 320 224 L 320 152 Z Z" stroke-miterlimit="10"/></g><g transform="translate(-134,-22) scale(1,1)"><path fill="none" stroke="#000000" d="M 320 177 L 470.58447265625 177" stroke-miterlimit="10"/></g><g transform="translate(-134,-22) scale(1,1)"><path fill="none" stroke="#000000" d="M 320 187 L 470.58447265625 187" stroke-miterlimit="10"/></g><g transform="translate(-134,-22) scale(1,1)"><g><path fill="none" stroke="none"/><text fill="#000000" stroke="none" font-family="Arial" font-size="13px" font-style="normal" font-weight="bold" text-decoration="none" x="328.464111328125" y="171.5">ImageCaptureFromFile</text></g></g><g transform="translate(-134,-22) scale(1,1)"><g><path fill="none" stroke="none"/><text fill="#000000" stroke="none" font-family="Arial" font-size="13px" font-style="normal" font-weight="normal" text-decoration="none" x="325" y="204.5">+specifyFile()</text></g></g><g transform="translate(-134,-22) scale(1,1)"><g><path fill="none" stroke="none"/><text fill="#000000" stroke="none" font-family="Arial" font-size="13px" font-style="normal" font-weight="normal" text-decoration="none" x="325" y="219.5">+captureImageFF()</text></g></g><g transform="translate(-134,-22) scale(1,1)"><rect fill="#C0C0C0" stroke="none" x="271" y="55" width="95.68994140625" height="57" opacity="0.2"/></g><g transform="translate(-134,-22) scale(1,1)"><rect fill="#ffffff" stroke="none" x="264" y="48" width="95.68994140625" height="57"/></g><g transform="translate(-134,-22) scale(1,1)"><path fill="none" stroke="#000000" d="M 264 48 L 359.68994140625 48 L 359.68994140625 105 L 264 105 L 264 48 Z Z" stroke-miterlimit="10"/></g><g transform="translate(-134,-22) scale(1,1)"><path fill="none" stroke="#000000" d="M 264 86 L 359.68994140625 86" stroke-miterlimit="10"/></g><g transform="translate(-134,-22) scale(1,1)"><path fill="none" stroke="#000000" d="M 264 96 L 359.68994140625 96" stroke-miterlimit="10"/></g><g transform="translate(-134,-22) scale(1,1)"><g><path fill="none" stroke="none"/><text fill="#000000" stroke="none" font-family="Arial" font-size="13px" font-style="normal" font-weight="normal" text-decoration="none" x="279.6845703125" y="65.5">«interface»</text></g></g><g transform="translate(-134,-22) scale(1,1)"><g><path fill="none" stroke="none"/><text fill="#000000" stroke="none" font-family="Arial" font-size="13px" font-style="normal" font-weight="bold" text-decoration="none" x="270.655029296875" y="80.5">ImageCapture</text></g></g><g transform="translate(-134,-22) scale(1,1)"><path fill="none" stroke="#000000" d="M 223 151 L 224 124 L 263 102" stroke-miterlimit="10"/></g><g transform="translate(-134,-22) scale(1,1)"><path fill="#FFFFFF" stroke="none" d="M 249.43350856926727 119.31907359704485 L 263 102 L 241.16060752808042 104.65347629675901"/></g><g transform="translate(-134,-22) scale(1,1)"><path fill="none" stroke="#000000" d="M 249.43350856926727 119.31907359704485 L 263 102 L 241.16060752808042 104.65347629675901 L 249.43350856926727 119.31907359704485" stroke-miterlimit="10"/></g><g transform="translate(-134,-22) scale(1,1)"><path fill="none" stroke="#000000" d="M 393 151 L 392 128 L 358 106" stroke-miterlimit="10"/></g><g transform="translate(-134,-22) scale(1,1)"><path fill="#FFFFFF" stroke="none" d="M 379.6382088573663 109.973401243896 L 358 106 L 370.4909052518406 124.11014317970846"/></g><g transform="translate(-134,-22) scale(1,1)"><path fill="none" stroke="#000000" d="M 379.6382088573663 109.973401243896 L 358 106 L 370.4909052518406 124.11014317970846 L 379.6382088573663 109.973401243896" stroke-miterlimit="10"/></g><g transform="translate(-134,-22) scale(1,1)"><rect fill="#C0C0C0" stroke="none" x="311" y="399" width="163.35986328125" height="80" opacity="0.2"/></g><g transform="translate(-134,-22) scale(1,1)"><rect fill="#ffffff" stroke="none" x="304" y="392" width="163.35986328125" height="80"/></g><g transform="translate(-134,-22) scale(1,1)"><path fill="none" stroke="#000000" d="M 304 392 L 467.35986328125 392 L 467.35986328125 472 L 304 472 L 304 392 Z Z" stroke-miterlimit="10"/></g><g transform="translate(-134,-22) scale(1,1)"><path fill="none" stroke="#000000" d="M 304 417 L 467.35986328125 417" stroke-miterlimit="10"/></g><g transform="translate(-134,-22) scale(1,1)"><path fill="none" stroke="#000000" d="M 304 427 L 467.35986328125 427" stroke-miterlimit="10"/></g><g transform="translate(-134,-22) scale(1,1)"><g><path fill="none" stroke="none"/><text fill="#000000" stroke="none" font-family="Arial" font-size="13px" font-style="normal" font-weight="bold" text-decoration="none" x="348.819091796875" y="411.5">faceLocation</text></g></g><g transform="translate(-134,-22) scale(1,1)"><g><path fill="none" stroke="none"/><text fill="#000000" stroke="none" font-family="Arial" font-size="13px" font-style="normal" font-weight="normal" text-decoration="none" x="309" y="444.5">+normalizeIllumination()</text></g></g><g transform="translate(-134,-22) scale(1,1)"><g><path fill="none" stroke="none"/><text fill="#000000" stroke="none" font-family="Arial" font-size="13px" font-style="normal" font-weight="normal" text-decoration="none" x="309" y="459.5">+obtainFace()</text></g></g><g transform="translate(-134,-22) scale(1,1)"><path fill="none" stroke="#000000" d="M 385 391 L 384 304 L 487 306" stroke-miterlimit="10"/></g><g transform="translate(-134,-22) scale(1,1)"><path fill="none" stroke="#000000" d="M 476.7575176559406 310.01142810375944 L 487 306 L 476.9209632639215 301.59397929274274" stroke-miterlimit="10"/></g><g transform="translate(-134,-22) scale(1,1)"><path fill="none" stroke="#000000" d="M 633 423 L 632 393 L 612 359" stroke-miterlimit="10"/></g><g transform="translate(-134,-22) scale(1,1)"><path fill="none" stroke="#000000" d="M 620.7810080757596 365.6252469518838 L 612 359 L 613.5243533093109 369.89386740273596" stroke-miterlimit="10"/></g><g transform="translate(-134,-22) scale(1,1)"><path fill="none" stroke="#000000" d="M 361 76 L 487 75" stroke-miterlimit="10"/></g><g transform="translate(-134,-22) scale(1,1)"><path fill="none" stroke="#000000" d="M 476.87105301029 79.29003879698593 L 487 75 L 476.8042373723949 70.87126842219911" stroke-miterlimit="10"/></g><g transform="translate(-134,-22) scale(1,1)"><path fill="none" stroke="#000000" d="M 584 255 L 588 120" stroke-miterlimit="10"/></g><g transform="translate(-134,-22) scale(1,1)"><path fill="none" stroke="#000000" d="M 591.9066869706984 130.2828885490885 L 588 120 L 583.4913446257079 130.03354507219993" stroke-miterlimit="10"/></g><g transform="translate(-134,-22) scale(1,1)"><path fill="none" stroke="#000000" d="M 589 75 L 596 76" stroke-miterlimit="10" stroke-dasharray="3"/></g><g transform="translate(-134,-22) scale(1,1)"><path fill="none" stroke="#000000" d="M 392 473 L 392 473" stroke-miterlimit="10" stroke-dasharray="3"/></g><g transform="translate(-134,-22) scale(1,1)"><rect fill="#C0C0C0" stroke="none" x="887" y="55" width="156.38623046875" height="57" opacity="0.2"/></g><g transform="translate(-134,-22) scale(1,1)"><rect fill="#ffffff" stroke="none" x="880" y="48" width="156.38623046875" height="57"/></g><g transform="translate(-134,-22) scale(1,1)"><path fill="none" stroke="#000000" d="M 880 48 L 1036.38623046875 48 L 1036.38623046875 105 L 880 105 L 880 48 Z Z" stroke-miterlimit="10"/></g><g transform="translate(-134,-22) scale(1,1)"><path fill="none" stroke="#000000" d="M 880 86 L 1036.38623046875 86" stroke-miterlimit="10"/></g><g transform="translate(-134,-22) scale(1,1)"><path fill="none" stroke="#000000" d="M 880 96 L 1036.38623046875 96" stroke-miterlimit="10"/></g><g transform="translate(-134,-22) scale(1,1)"><g><path fill="none" stroke="none"/><text fill="#000000" stroke="none" font-family="Arial" font-size="13px" font-style="normal" font-weight="normal" text-decoration="none" x="926.03271484375" y="65.5">«interface»</text></g></g><g transform="translate(-134,-22) scale(1,1)"><g><path fill="none" stroke="none"/><text fill="#000000" stroke="none" font-family="Arial" font-size="13px" font-style="normal" font-weight="bold" text-decoration="none" x="910.503173828125" y="80.5">PatternCompare</text></g></g><g transform="translate(-134,-22) scale(1,1)"><rect fill="#C0C0C0" stroke="none" x="903" y="319" width="343.166015625" height="72" opacity="0.2"/></g><g transform="translate(-134,-22) scale(1,1)"><rect fill="#ffffff" stroke="none" x="896" y="312" width="343.166015625" height="72"/></g><g transform="translate(-134,-22) scale(1,1)"><path fill="none" stroke="#000000" d="M 896 312 L 1239.166015625 312 L 1239.166015625 384 L 896 384 L 896 312 Z Z" stroke-miterlimit="10"/></g><g transform="translate(-134,-22) scale(1,1)"><path fill="none" stroke="#000000" d="M 896 337 L 1239.166015625 337" stroke-miterlimit="10"/></g><g transform="translate(-134,-22) scale(1,1)"><path fill="none" stroke="#000000" d="M 896 347 L 1239.166015625 347" stroke-miterlimit="10"/></g><g transform="translate(-134,-22) scale(1,1)"><g><path fill="none" stroke="none"/><text fill="#000000" stroke="none" font-family="Arial" font-size="13px" font-style="normal" font-weight="bold" text-decoration="none" x="1001.824462890625" y="331.5">PatternCompareSingle</text></g></g><g transform="translate(-134,-22) scale(1,1)"><g><path fill="none" stroke="none"/><text fill="#000000" stroke="none" font-family="Arial" font-size="13px" font-style="normal" font-weight="normal" text-decoration="none" x="901" y="364.5">+specifyFile()</text></g></g><g transform="translate(-134,-22) scale(1,1)"><g><path fill="none" stroke="none"/><text fill="#000000" stroke="none" font-family="Arial" font-size="13px" font-style="normal" font-weight="normal" text-decoration="none" x="901" y="379.5">+compareCharacteristicsFromPatterns(pattern1, pattern2)</text></g></g><g transform="translate(-134,-22) scale(1,1)"><rect fill="#C0C0C0" stroke="none" x="695" y="175" width="342.43603515625" height="100" opacity="0.2"/></g><g transform="translate(-134,-22) scale(1,1)"><rect fill="#ffffff" stroke="none" x="688" y="168" width="342.43603515625" height="100"/></g><g transform="translate(-134,-22) scale(1,1)"><path fill="none" stroke="#000000" d="M 688 168 L 1030.43603515625 168 L 1030.43603515625 268 L 688 268 L 688 168 Z Z" stroke-miterlimit="10"/></g><g transform="translate(-134,-22) scale(1,1)"><path fill="none" stroke="#000000" d="M 688 193 L 1030.43603515625 193" stroke-miterlimit="10"/></g><g transform="translate(-134,-22) scale(1,1)"><path fill="none" stroke="#000000" d="M 688 216 L 1030.43603515625 216" stroke-miterlimit="10"/></g><g transform="translate(-134,-22) scale(1,1)"><g><path fill="none" stroke="none"/><text fill="#000000" stroke="none" font-family="Arial" font-size="13px" font-style="normal" font-weight="bold" text-decoration="none" x="801.054443359375" y="187.5">PatternCompareFull</text></g></g><g transform="translate(-134,-22) scale(1,1)"><g><path fill="none" stroke="none"/><text fill="#000000" stroke="none" font-family="Arial" font-size="13px" font-style="normal" font-weight="normal" text-decoration="none" x="693" y="210.5">+patterns: List&lt;Pattern&gt;</text></g></g><g transform="translate(-134,-22) scale(1,1)"><g><path fill="none" stroke="none"/><text fill="#000000" stroke="none" font-family="Arial" font-size="13px" font-style="normal" font-weight="normal" text-decoration="none" x="693" y="233.5">+databaseConnection()</text></g></g><g transform="translate(-134,-22) scale(1,1)"><g><path fill="none" stroke="none"/><text fill="#000000" stroke="none" font-family="Arial" font-size="13px" font-style="normal" font-weight="normal" text-decoration="none" x="693" y="248.5">+getAllPatternsFromDatabase(databaseConection)</text></g></g><g transform="translate(-134,-22) scale(1,1)"><g><path fill="none" stroke="none"/><text fill="#000000" stroke="none" font-family="Arial" font-size="13px" font-style="normal" font-weight="normal" text-decoration="none" x="693" y="263.5">+compareCharacteristicsFromPatterns(pattern1, patterns)</text></g></g><g transform="translate(-134,-22) scale(1,1)"><path fill="none" stroke="#000000" d="M 1081 385 L 1081 385" stroke-miterlimit="10" stroke-dasharray="3"/></g><g transform="translate(-134,-22) scale(1,1)"><path fill="none" stroke="#000000" d="M 859 218 L 944 219" stroke-miterlimit="10" stroke-dasharray="3"/></g><g transform="translate(-134,-22) scale(1,1)"><path fill="none" stroke="#000000" d="M 1066 311 L 1064 184 L 987 106" stroke-miterlimit="10"/></g><g transform="translate(-134,-22) scale(1,1)"><path fill="#FFFFFF" stroke="none" d="M 1007.2706114965324 114.54998886295459 L 987 106 L 995.2877317439314 126.37924195206072"/></g><g transform="translate(-134,-22) scale(1,1)"><path fill="none" stroke="#000000" d="M 1007.2706114965324 114.54998886295459 L 987 106 L 995.2877317439314 126.37924195206072 L 1007.2706114965324 114.54998886295459" stroke-miterlimit="10"/></g><g transform="translate(-134,-22) scale(1,1)"><path fill="none" stroke="#000000" d="M 862 167 L 864 128 L 904 106" stroke-miterlimit="10"/></g><g transform="translate(-134,-22) scale(1,1)"><path fill="#FFFFFF" stroke="none" d="M 890.2478962983289 123.17205997481037 L 904 106 L 882.1333141618372 108.41827427209826"/></g><g transform="translate(-134,-22) scale(1,1)"><path fill="none" stroke="#000000" d="M 890.2478962983289 123.17205997481037 L 904 106 L 882.1333141618372 108.41827427209826 L 890.2478962983289 123.17205997481037" stroke-miterlimit="10"/></g><g transform="translate(-134,-22) scale(1,1)"><path fill="none" stroke="#000000" d="M 879 76 L 693 75" stroke-miterlimit="10"/></g><g transform="translate(-134,-22) scale(1,1)"><path fill="none" stroke="#000000" d="M 703.1851594731775 70.84518032810767 L 693 75 L 703.1398964955525 79.26409416634786" stroke-miterlimit="10"/></g></g></svg>